<?xml version="1.0" encoding="utf-8"?>
<!-- Generator: Adobe Illustrator 27.0.0, SVG Export Plug-In . SVG Version: 6.00 Build 0)  -->
<svg version="1.1" id="레이어_1" xmlns="http://www.w3.org/2000/svg" xmlns:xlink="http://www.w3.org/1999/xlink" x="0px"
	 y="0px" viewBox="0 0 2047.2 1906.7" style="enable-background:new 0 0 2047.2 1906.7;" xml:space="preserve">
<style type="text/css">
	.st0{fill:#3C1E1E;}
</style>
<g>
	<polygon class="st0" points="808.8,762.6 750.2,928.9 867.3,928.9 867.3,928.9 	"/>
	<path class="st0" d="M1023.6,16.1L1023.6,16.1C462.7,16.1,8,374.7,8,816.9c0,285.9,190.1,536.8,476.1,678.5
		c-15.6,53.7-100,345.2-103.3,368.1c0,0-2,17.2,9.1,23.8c11.1,6.6,24.2,1.5,24.2,1.5c32-4.5,370.5-242.3,429.1-283.6
		c58.5,8.3,118.8,12.6,180.4,12.6c560.9,0,1015.6-358.5,1015.6-800.8C2039.2,374.7,1584.5,16.1,1023.6,16.1z M520.7,1040.5
		c0,30.9-26.3,56-58.6,56s-58.6-25.1-58.6-56V692.4h-91.4c-31.7,0-57.5-25.7-57.5-57.4s25.8-57.4,57.5-57.4h300
		c31.7,0,57.5,25.7,57.5,57.4s-25.8,57.4-57.5,57.4h-91.4V1040.5z M1013.1,1087.6c-11.7,5.3-24.4,8.1-37.2,8.1v0
		c-24.4,0-43.1-9.9-48.8-25.9l-29-76l-178.7,0l-29,76c-5.6,15.9-24.3,25.8-48.7,25.8c-12.9,0-25.6-2.7-37.2-8.1
		c-16.2-7.5-31.7-27.9-13.9-83.2l140.2-368.9c9.9-28.1,39.9-57,78-57.8c38.3,0.9,68.3,29.8,78.2,57.9l140.1,368.7
		C1044.8,1059.7,1029.3,1080.2,1013.1,1087.6z M1309.3,1087.9h-188c-31,0-56.2-24.1-56.2-53.7V636.3c0-32.3,26.8-58.6,59.8-58.6
		s59.8,26.3,59.8,58.6v344.2h124.5c31,0,56.2,24.1,56.2,53.7C1365.4,1063.8,1340.2,1087.9,1309.3,1087.9z M1767.9,1043.8
		c-2.1,15.4-10.3,29.3-22.7,38.6c-10.1,7.7-22.5,11.9-35.2,11.8c-18.4,0.1-35.8-8.6-46.8-23.3l-137.4-182.1l-20.3,20.3v127.8
		c0,32.4-26.3,58.6-58.6,58.6v0c-32.3,0-58.6-26.3-58.6-58.6V636.3c0-32.3,26.3-58.6,58.6-58.6s58.6,26.3,58.6,58.6v125.9
		l163.5-163.5c8.4-8.4,20-13,32.5-13c14.6,0,29.3,6.3,40.3,17.3c10.3,10.3,16.4,23.4,17.2,37.1c0.8,13.8-3.8,26.5-12.9,35.7
		l-133.5,133.5l144.2,191.1C1766.1,1012.8,1770.1,1028.4,1767.9,1043.8z"/>
</g>
</svg>
