<svg xmlns="http://www.w3.org/2000/svg" viewBox="0 0 129.999 130"><path d="M65 0a65 65 0 0 0-11.212 129.017V82.932H38.1V65h15.692V50.68c0-16.291 10.754-26.022 25.605-26.022a113.1 113.1 0 0 1 14.74 1.168v16.761h-8.391c-8.072 0-9.538 5.083-9.538 10.223V65h17.929L91 82.932H76.208v46.085A64.995 64.995 0 0 0 65 0" style="fill:#1778f2"/><path d="M76.206 82.933H91L94.139 65H76.206V52.81c0-5.14 1.47-10.222 9.542-10.222h8.391V25.827a113.1 113.1 0 0 0-14.746-1.169c-14.845 0-25.6 9.732-25.6 26.023V65H38.1v17.933h15.694v46.085a64.429 64.429 0 0 0 22.412 0Z" style="fill:#fff"/></svg>